<?xml version="1.0" encoding="UTF-8"?>
<svg id="Layer_1" data-name="Layer 1" xmlns="http://www.w3.org/2000/svg" viewBox="0 0 1000 239.85">
  <defs>
    <style>
      .cls-1 {
        fill: #0b1220;
      }

      .cls-2 {
        fill: #1d4ed8;
      }
    </style>
  </defs>
  <g>
    <polygon class="cls-1" points="312.71 172.06 383.83 172.06 383.83 195.4 280.33 195.4 280.33 167.74 349.78 84.64 347.85 82.01 279.83 82.01 279.83 58.66 380.53 58.66 380.53 86.32 310.92 169.63 312.71 172.06"/>
    <path class="cls-1" d="M488.1,58.66h29.68v136.74h-23.59v-31.38c-.68,2.62-1.48,5.09-2.41,7.42-3.64,9.22-8.96,16.2-15.98,20.93-7.01,4.73-15.85,7.09-26.51,7.09h-1.27c-16.07,0-28.41-5.19-37.04-15.59-8.62-10.41-12.93-25.74-12.93-46.04V58.66h29.68v83.21c0,9.48,2.62,16.96,7.87,22.46,5.24,5.5,12.34,8.24,21.3,8.24s16.62-2.93,22.46-8.75c5.82-5.84,8.75-13.84,8.75-23.99V58.66Z"/>
    <path class="cls-1" d="M627.36,57.15v26.13h-9.14c-12.85,0-22.7,3.41-29.55,10.26-6.85,6.86-10.28,16.62-10.28,29.3v72.56h-29.68V58.66h23.59v41.82c1.72-12.15,5.71-21.74,11.92-28.75,8.62-9.72,21.38-14.59,38.31-14.59h4.81Z"/>
    <path class="cls-1" d="M765.79,136.86l-26.75,7.01c.1,5.74-2.28,11.38-7.11,16.93-4.85,5.55-11.85,9.53-21.01,11.92-9.17,2.39-17.22,2.36-24.15-.11-6.94-2.46-12.72-6.8-17.32-13.03-3.46-4.68-6.28-10.11-8.44-16.29l102.09-26.7-3.02-11.53c-2.99-11.45-8.16-21.5-15.5-30.16-7.33-8.65-16.55-14.85-27.68-18.59-11.11-3.74-23.79-3.74-38.02-.02-10.96,2.86-20.07,7.3-27.33,13.3-7.25,6.02-12.73,12.96-16.44,20.83-3.71,7.87-5.85,16.21-6.44,25.01-.57,8.81.28,17.55,2.54,26.23l1.22,4.65c2.23,8.52,5.74,16.46,10.57,23.86,4.81,7.4,10.76,13.61,17.85,18.67,7.09,5.06,15.4,8.42,24.94,10.13,9.53,1.69,20.02,1.04,31.48-1.95,10.63-2.78,19.64-7.06,27.04-12.85,7.42-5.77,12.98-12.73,16.7-20.88,3.72-8.15,5.32-16.94,4.76-26.42ZM656.74,123.7c-.39-4.26-.33-8.29.16-12.11.99-7.59,3.84-14.11,8.54-19.53,4.7-5.43,11.3-9.25,19.81-11.48,8.18-2.15,15.43-2.16,21.74-.05,6.33,2.1,11.72,6.02,16.2,11.76,2.73,3.5,5.04,7.56,6.96,12.21l-73.4,19.2Z"/>
    <path class="cls-1" d="M1000,147.28v48.12h-29.68v-52.43c0-9.81-2.83-17.55-8.5-23.22-5.66-5.66-12.98-8.49-21.94-8.49-9.64,0-17.42,3.2-23.33,9.63-5.92,6.44-8.88,14.9-8.88,25.37v49.14h-29.68V39.98h29.68v72.12c3.45-8.59,8.49-15.25,15.09-19.98,7.19-5.15,16.28-7.74,27.27-7.74h1.27c16.07,0,28.2,5.41,36.39,16.23,8.21,10.83,12.31,26.39,12.31,46.69Z"/>
    <path class="cls-1" d="M858.96,101.88v-22.08h-84.04v22.08h11.24v44.56c0,12.69,1.99,22.75,5.95,30.18,3.98,7.45,9.86,12.69,17.64,15.75,7.79,3.04,17.32,4.55,28.66,4.55h20.55v-25.87h-22.83c-6.95,0-12.31-1.9-16.11-5.7-3.81-3.81-5.71-9.26-5.71-16.36v-47.1h44.65Z"/>
    <polygon class="cls-2" points="814.31 41.21 786.16 79.8 786.16 39.98 813.54 39.98 814.31 41.21"/>
  </g>
  <g>
    <polygon class="cls-2" points="167.19 6.37 0 206.39 0 0 162.51 0 167.19 6.37"/>
    <polygon class="cls-2" points="72.66 233.48 239.85 33.46 239.85 239.85 77.34 239.85 72.66 233.48"/>
  </g>
</svg>